<mxfile host="app.diagrams.net" modified="2020-09-22T23:28:24.292Z" agent="5.0 (Windows NT 10.0; Win64; x64) AppleWebKit/537.36 (KHTML, like Gecko) Chrome/84.0.4147.135 Safari/537.36 OPR/70.0.3728.189" etag="_6fmzP_CqBxgzKaL8iS0" version="13.7.4" type="github">
  <diagram id="C5RBs43oDa-KdzZeNtuy" name="Page-1">
    <mxGraphModel dx="1382" dy="795" grid="0" gridSize="10" guides="1" tooltips="1" connect="1" arrows="1" fold="1" page="1" pageScale="1" pageWidth="827" pageHeight="1169" math="0" shadow="0">
      <root>
        <mxCell id="WIyWlLk6GJQsqaUBKTNV-0" />
        <mxCell id="WIyWlLk6GJQsqaUBKTNV-1" parent="WIyWlLk6GJQsqaUBKTNV-0" />
        <mxCell id="QYXCNlo6sXyqZqZzRMm_-2" style="edgeStyle=orthogonalEdgeStyle;rounded=0;orthogonalLoop=1;jettySize=auto;html=1;entryX=0.5;entryY=0;entryDx=0;entryDy=0;strokeColor=#006658;fontColor=#5C5C5C;" edge="1" parent="WIyWlLk6GJQsqaUBKTNV-1" source="QYXCNlo6sXyqZqZzRMm_-0" target="QYXCNlo6sXyqZqZzRMm_-1">
          <mxGeometry relative="1" as="geometry" />
        </mxCell>
        <mxCell id="QYXCNlo6sXyqZqZzRMm_-0" value="Inicio" style="ellipse;whiteSpace=wrap;html=1;fillColor=#21C0A5;strokeColor=#006658;fontColor=#5C5C5C;" vertex="1" parent="WIyWlLk6GJQsqaUBKTNV-1">
          <mxGeometry x="354" y="40" width="120" height="60" as="geometry" />
        </mxCell>
        <mxCell id="QYXCNlo6sXyqZqZzRMm_-4" style="edgeStyle=orthogonalEdgeStyle;rounded=0;orthogonalLoop=1;jettySize=auto;html=1;entryX=0.5;entryY=0;entryDx=0;entryDy=0;strokeColor=#006658;fontColor=#5C5C5C;" edge="1" parent="WIyWlLk6GJQsqaUBKTNV-1" source="QYXCNlo6sXyqZqZzRMm_-1" target="QYXCNlo6sXyqZqZzRMm_-3">
          <mxGeometry relative="1" as="geometry" />
        </mxCell>
        <mxCell id="QYXCNlo6sXyqZqZzRMm_-1" value="con=0 : Entero" style="rounded=0;whiteSpace=wrap;html=1;fillColor=#21C0A5;strokeColor=#006658;fontColor=#5C5C5C;" vertex="1" parent="WIyWlLk6GJQsqaUBKTNV-1">
          <mxGeometry x="354" y="150" width="120" height="60" as="geometry" />
        </mxCell>
        <mxCell id="QYXCNlo6sXyqZqZzRMm_-6" style="edgeStyle=orthogonalEdgeStyle;rounded=0;orthogonalLoop=1;jettySize=auto;html=1;entryX=0.5;entryY=0;entryDx=0;entryDy=0;strokeColor=#006658;fontColor=#5C5C5C;" edge="1" parent="WIyWlLk6GJQsqaUBKTNV-1" source="QYXCNlo6sXyqZqZzRMm_-3" target="QYXCNlo6sXyqZqZzRMm_-5">
          <mxGeometry relative="1" as="geometry" />
        </mxCell>
        <mxCell id="QYXCNlo6sXyqZqZzRMm_-3" value="con = con + 5" style="rounded=0;whiteSpace=wrap;html=1;fillColor=#21C0A5;strokeColor=#006658;fontColor=#5C5C5C;" vertex="1" parent="WIyWlLk6GJQsqaUBKTNV-1">
          <mxGeometry x="354" y="260" width="120" height="60" as="geometry" />
        </mxCell>
        <mxCell id="QYXCNlo6sXyqZqZzRMm_-9" style="edgeStyle=orthogonalEdgeStyle;rounded=0;orthogonalLoop=1;jettySize=auto;html=1;strokeColor=#006658;fontColor=#5C5C5C;" edge="1" parent="WIyWlLk6GJQsqaUBKTNV-1" source="QYXCNlo6sXyqZqZzRMm_-5">
          <mxGeometry relative="1" as="geometry">
            <mxPoint x="414" y="490" as="targetPoint" />
          </mxGeometry>
        </mxCell>
        <mxCell id="QYXCNlo6sXyqZqZzRMm_-5" value="&quot;La serie va en &quot; con" style="shape=document;whiteSpace=wrap;html=1;boundedLbl=1;fillColor=#21C0A5;strokeColor=#006658;fontColor=#5C5C5C;" vertex="1" parent="WIyWlLk6GJQsqaUBKTNV-1">
          <mxGeometry x="354" y="370" width="120" height="80" as="geometry" />
        </mxCell>
        <mxCell id="QYXCNlo6sXyqZqZzRMm_-10" style="edgeStyle=orthogonalEdgeStyle;rounded=0;orthogonalLoop=1;jettySize=auto;html=1;entryX=1;entryY=0.5;entryDx=0;entryDy=0;strokeColor=#006658;fontColor=#5C5C5C;" edge="1" parent="WIyWlLk6GJQsqaUBKTNV-1" source="QYXCNlo6sXyqZqZzRMm_-7" target="QYXCNlo6sXyqZqZzRMm_-3">
          <mxGeometry relative="1" as="geometry">
            <Array as="points">
              <mxPoint x="590" y="540" />
              <mxPoint x="590" y="290" />
            </Array>
          </mxGeometry>
        </mxCell>
        <mxCell id="QYXCNlo6sXyqZqZzRMm_-12" style="edgeStyle=orthogonalEdgeStyle;rounded=0;orthogonalLoop=1;jettySize=auto;html=1;entryX=0.5;entryY=0;entryDx=0;entryDy=0;strokeColor=#006658;fontColor=#5C5C5C;" edge="1" parent="WIyWlLk6GJQsqaUBKTNV-1" source="QYXCNlo6sXyqZqZzRMm_-7" target="QYXCNlo6sXyqZqZzRMm_-11">
          <mxGeometry relative="1" as="geometry" />
        </mxCell>
        <object label="" id="QYXCNlo6sXyqZqZzRMm_-7">
          <mxCell style="verticalLabelPosition=bottom;verticalAlign=top;html=1;shape=hexagon;perimeter=hexagonPerimeter2;arcSize=6;size=0.25;fillColor=#21C0A5;strokeColor=#006658;fontColor=#5C5C5C;" vertex="1" parent="WIyWlLk6GJQsqaUBKTNV-1">
            <mxGeometry x="294" y="495" width="240" height="90" as="geometry" />
          </mxCell>
        </object>
        <mxCell id="QYXCNlo6sXyqZqZzRMm_-8" value="Repetir mientras con &lt; 50" style="text;html=1;resizable=0;autosize=1;align=center;verticalAlign=middle;points=[];fillColor=none;strokeColor=none;rounded=0;fontColor=#5C5C5C;" vertex="1" parent="WIyWlLk6GJQsqaUBKTNV-1">
          <mxGeometry x="339" y="530" width="150" height="20" as="geometry" />
        </mxCell>
        <mxCell id="QYXCNlo6sXyqZqZzRMm_-11" value="Fin" style="ellipse;whiteSpace=wrap;html=1;fillColor=#21C0A5;strokeColor=#006658;fontColor=#5C5C5C;" vertex="1" parent="WIyWlLk6GJQsqaUBKTNV-1">
          <mxGeometry x="354" y="640" width="120" height="60" as="geometry" />
        </mxCell>
      </root>
    </mxGraphModel>
  </diagram>
</mxfile>
